<mxfile host="app.diagrams.net" modified="2023-08-16T16:54:57.892Z" agent="Mozilla/5.0 (Windows NT 10.0; Win64; x64) AppleWebKit/537.36 (KHTML, like Gecko) Chrome/115.0.0.0 Safari/537.36" etag="1mb8F7jTHxY1L58iUf9b" version="21.6.8" type="github">
  <diagram name="第 1 页" id="vyMSMeSIbYGnhlisA5k1">
    <mxGraphModel dx="1434" dy="750" grid="1" gridSize="10" guides="1" tooltips="1" connect="1" arrows="1" fold="1" page="1" pageScale="1" pageWidth="827" pageHeight="1169" math="0" shadow="0">
      <root>
        <mxCell id="0" />
        <mxCell id="1" parent="0" />
        <mxCell id="GHU4YYUhs9fJId3u3pcE-37" value="" style="rounded=0;whiteSpace=wrap;html=1;dashed=1;" vertex="1" parent="1">
          <mxGeometry x="220" y="210" width="710" height="550" as="geometry" />
        </mxCell>
        <mxCell id="GHU4YYUhs9fJId3u3pcE-1" value="&lt;font style=&quot;font-size: 16px;&quot;&gt;配置中心&lt;/font&gt;" style="rounded=0;whiteSpace=wrap;html=1;fillColor=#C9C9C9;" vertex="1" parent="1">
          <mxGeometry x="820" y="330" width="90" height="320" as="geometry" />
        </mxCell>
        <mxCell id="GHU4YYUhs9fJId3u3pcE-9" value="&lt;font style=&quot;font-size: 16px;&quot;&gt;AB实验平台&lt;/font&gt;" style="rounded=0;whiteSpace=wrap;html=1;fillColor=#C9C9C9;" vertex="1" parent="1">
          <mxGeometry x="430" y="260" width="480" height="60" as="geometry" />
        </mxCell>
        <mxCell id="GHU4YYUhs9fJId3u3pcE-38" value="&lt;font style=&quot;font-size: 15px;&quot;&gt;&lt;b&gt;实验服务&lt;/b&gt;&lt;/font&gt;" style="text;html=1;align=center;verticalAlign=middle;resizable=0;points=[];autosize=1;strokeColor=none;fillColor=none;" vertex="1" parent="1">
          <mxGeometry x="220" y="210" width="80" height="30" as="geometry" />
        </mxCell>
        <mxCell id="GHU4YYUhs9fJId3u3pcE-39" value="" style="group" vertex="1" connectable="0" parent="1">
          <mxGeometry x="120" y="295" width="120" height="390" as="geometry" />
        </mxCell>
        <mxCell id="GHU4YYUhs9fJId3u3pcE-49" value="" style="group" vertex="1" connectable="0" parent="GHU4YYUhs9fJId3u3pcE-39">
          <mxGeometry x="130" y="-30" width="120" height="390" as="geometry" />
        </mxCell>
        <mxCell id="GHU4YYUhs9fJId3u3pcE-26" value="" style="rounded=0;whiteSpace=wrap;html=1;" vertex="1" parent="GHU4YYUhs9fJId3u3pcE-49">
          <mxGeometry width="120" height="390" as="geometry" />
        </mxCell>
        <mxCell id="GHU4YYUhs9fJId3u3pcE-27" value="数据整合" style="rounded=0;whiteSpace=wrap;html=1;fillColor=#d5e8d4;strokeColor=#82b366;" vertex="1" parent="GHU4YYUhs9fJId3u3pcE-49">
          <mxGeometry x="17" y="80" width="83" height="80" as="geometry" />
        </mxCell>
        <mxCell id="GHU4YYUhs9fJId3u3pcE-28" value="数据去重" style="rounded=0;whiteSpace=wrap;html=1;fillColor=#d5e8d4;strokeColor=#82b366;" vertex="1" parent="GHU4YYUhs9fJId3u3pcE-49">
          <mxGeometry x="17" y="244.5" width="86" height="80" as="geometry" />
        </mxCell>
        <mxCell id="GHU4YYUhs9fJId3u3pcE-29" value="&lt;b&gt;&lt;font style=&quot;font-size: 14px;&quot;&gt;数据处理&lt;/font&gt;&lt;/b&gt;" style="text;html=1;align=center;verticalAlign=middle;resizable=0;points=[];autosize=1;strokeColor=none;fillColor=none;" vertex="1" parent="GHU4YYUhs9fJId3u3pcE-49">
          <mxGeometry width="80" height="30" as="geometry" />
        </mxCell>
        <mxCell id="GHU4YYUhs9fJId3u3pcE-41" value="" style="group" vertex="1" connectable="0" parent="1">
          <mxGeometry x="430" y="330" width="150" height="320" as="geometry" />
        </mxCell>
        <mxCell id="GHU4YYUhs9fJId3u3pcE-8" value="" style="rounded=0;whiteSpace=wrap;html=1;" vertex="1" parent="GHU4YYUhs9fJId3u3pcE-41">
          <mxGeometry width="150" height="320" as="geometry" />
        </mxCell>
        <mxCell id="GHU4YYUhs9fJId3u3pcE-2" value="机型过滤器" style="rounded=0;whiteSpace=wrap;html=1;fillColor=#e1d5e7;strokeColor=#9673a6;" vertex="1" parent="GHU4YYUhs9fJId3u3pcE-41">
          <mxGeometry x="20" y="50" width="110" height="40" as="geometry" />
        </mxCell>
        <mxCell id="GHU4YYUhs9fJId3u3pcE-3" value="IP过滤器" style="rounded=0;whiteSpace=wrap;html=1;fillColor=#e1d5e7;strokeColor=#9673a6;" vertex="1" parent="GHU4YYUhs9fJId3u3pcE-41">
          <mxGeometry x="20" y="120" width="110" height="40" as="geometry" />
        </mxCell>
        <mxCell id="GHU4YYUhs9fJId3u3pcE-4" value="多看版本过滤器" style="rounded=0;whiteSpace=wrap;html=1;fillColor=#e1d5e7;strokeColor=#9673a6;" vertex="1" parent="GHU4YYUhs9fJId3u3pcE-41">
          <mxGeometry x="20" y="200" width="110" height="40" as="geometry" />
        </mxCell>
        <mxCell id="GHU4YYUhs9fJId3u3pcE-5" value="安卓版本过滤器" style="rounded=0;whiteSpace=wrap;html=1;fillColor=#e1d5e7;strokeColor=#9673a6;" vertex="1" parent="GHU4YYUhs9fJId3u3pcE-41">
          <mxGeometry x="20" y="260" width="110" height="40" as="geometry" />
        </mxCell>
        <mxCell id="GHU4YYUhs9fJId3u3pcE-7" value="&lt;font style=&quot;font-size: 29px;&quot;&gt;......&lt;/font&gt;" style="text;html=1;align=center;verticalAlign=middle;resizable=0;points=[];autosize=1;strokeColor=none;fillColor=none;" vertex="1" parent="GHU4YYUhs9fJId3u3pcE-41">
          <mxGeometry x="40" y="150" width="70" height="50" as="geometry" />
        </mxCell>
        <mxCell id="GHU4YYUhs9fJId3u3pcE-22" value="&lt;font style=&quot;font-size: 14px;&quot;&gt;&lt;b&gt;数据过滤&lt;/b&gt;&lt;/font&gt;" style="text;html=1;align=center;verticalAlign=middle;resizable=0;points=[];autosize=1;strokeColor=none;fillColor=none;" vertex="1" parent="GHU4YYUhs9fJId3u3pcE-41">
          <mxGeometry width="80" height="30" as="geometry" />
        </mxCell>
        <mxCell id="GHU4YYUhs9fJId3u3pcE-42" value="" style="group" vertex="1" connectable="0" parent="1">
          <mxGeometry x="631.25" y="330" width="127" height="320" as="geometry" />
        </mxCell>
        <mxCell id="GHU4YYUhs9fJId3u3pcE-35" value="" style="rounded=0;whiteSpace=wrap;html=1;" vertex="1" parent="GHU4YYUhs9fJId3u3pcE-42">
          <mxGeometry x="5" width="122" height="320" as="geometry" />
        </mxCell>
        <mxCell id="GHU4YYUhs9fJId3u3pcE-32" value="数据格式化" style="rounded=0;whiteSpace=wrap;html=1;fillColor=#ffe6cc;strokeColor=#d79b00;" vertex="1" parent="GHU4YYUhs9fJId3u3pcE-42">
          <mxGeometry x="25.25" y="200" width="81" height="70" as="geometry" />
        </mxCell>
        <mxCell id="GHU4YYUhs9fJId3u3pcE-34" value="数据规则校验" style="rounded=0;whiteSpace=wrap;html=1;fillColor=#ffe6cc;strokeColor=#d79b00;" vertex="1" parent="GHU4YYUhs9fJId3u3pcE-42">
          <mxGeometry x="24.5" y="80" width="82.5" height="70" as="geometry" />
        </mxCell>
        <mxCell id="GHU4YYUhs9fJId3u3pcE-36" value="&lt;font style=&quot;font-size: 14px;&quot;&gt;&lt;b&gt;数据标准化&lt;/b&gt;&lt;/font&gt;" style="text;html=1;align=center;verticalAlign=middle;resizable=0;points=[];autosize=1;strokeColor=none;fillColor=none;" vertex="1" parent="GHU4YYUhs9fJId3u3pcE-42">
          <mxGeometry width="90" height="30" as="geometry" />
        </mxCell>
        <mxCell id="GHU4YYUhs9fJId3u3pcE-43" value="" style="group" vertex="1" connectable="0" parent="1">
          <mxGeometry x="250" y="670" width="660" height="80" as="geometry" />
        </mxCell>
        <mxCell id="GHU4YYUhs9fJId3u3pcE-15" value="" style="rounded=0;whiteSpace=wrap;html=1;" vertex="1" parent="GHU4YYUhs9fJId3u3pcE-43">
          <mxGeometry width="660" height="80" as="geometry" />
        </mxCell>
        <mxCell id="GHU4YYUhs9fJId3u3pcE-16" value="熔断降级" style="rounded=0;whiteSpace=wrap;html=1;fillColor=#f8cecc;strokeColor=#b85450;" vertex="1" parent="GHU4YYUhs9fJId3u3pcE-43">
          <mxGeometry x="197.41071428571425" y="15" width="111.96428571428572" height="50" as="geometry" />
        </mxCell>
        <mxCell id="GHU4YYUhs9fJId3u3pcE-17" value="监控告警" style="rounded=0;whiteSpace=wrap;html=1;fillColor=#f8cecc;strokeColor=#b85450;" vertex="1" parent="GHU4YYUhs9fJId3u3pcE-43">
          <mxGeometry x="20.03571428571428" y="15" width="111.96428571428572" height="50" as="geometry" />
        </mxCell>
        <mxCell id="GHU4YYUhs9fJId3u3pcE-20" value="限流" style="rounded=0;whiteSpace=wrap;html=1;fillColor=#f8cecc;strokeColor=#b85450;" vertex="1" parent="GHU4YYUhs9fJId3u3pcE-43">
          <mxGeometry x="378.6160714285714" y="15" width="111.96428571428572" height="50" as="geometry" />
        </mxCell>
        <mxCell id="GHU4YYUhs9fJId3u3pcE-21" value="&lt;font style=&quot;font-size: 14px;&quot;&gt;&lt;b&gt;基础保障&lt;/b&gt;&lt;/font&gt;" style="text;html=1;align=center;verticalAlign=middle;resizable=0;points=[];autosize=1;strokeColor=none;fillColor=none;" vertex="1" parent="GHU4YYUhs9fJId3u3pcE-43">
          <mxGeometry x="565.7142857142857" y="40" width="80" height="30" as="geometry" />
        </mxCell>
        <mxCell id="GHU4YYUhs9fJId3u3pcE-50" value="" style="html=1;shadow=0;dashed=0;align=center;verticalAlign=middle;shape=mxgraph.arrows2.arrow;dy=0.67;dx=20;notch=0;direction=west;" vertex="1" parent="1">
          <mxGeometry x="770" y="465" width="40" height="40" as="geometry" />
        </mxCell>
        <mxCell id="GHU4YYUhs9fJId3u3pcE-61" value="" style="html=1;shadow=0;dashed=0;align=center;verticalAlign=middle;shape=mxgraph.arrows2.arrow;dy=0.67;dx=20;notch=0;direction=west;" vertex="1" parent="1">
          <mxGeometry x="591.25" y="465" width="40" height="40" as="geometry" />
        </mxCell>
        <mxCell id="GHU4YYUhs9fJId3u3pcE-68" value="" style="html=1;shadow=0;dashed=0;align=center;verticalAlign=middle;shape=mxgraph.arrows2.arrow;dy=0.67;dx=20;notch=0;direction=west;" vertex="1" parent="1">
          <mxGeometry x="381.25" y="465" width="40" height="40" as="geometry" />
        </mxCell>
      </root>
    </mxGraphModel>
  </diagram>
</mxfile>
